<?xml version="1.0" encoding="UTF-8"?>
<svg id="Calque_2" data-name="Calque 2" xmlns="http://www.w3.org/2000/svg" viewBox="0 0 152.83 26.17">
  <defs>
    <style>
      .cls-1 {
        fill: #1d1d1b;
      }
    </style>
  </defs>
  <g id="Calque_1-2" data-name="Calque 1">
    <g>
      <path class="cls-1" d="M24.67,0V25.73h-3.95V11.77l-8.36,13.55h-.03L3.95,11.75v13.98H0V0H.3L12.34,18.31,24.38,0h.3Z"/>
      <path class="cls-1" d="M45.38,21.91h-11.92l-1.72,3.83h-4.28L39.3,.03h.23l11.84,25.7h-4.28l-1.72-3.83Zm-1.53-3.39l-4.42-9.84-4.44,9.84h8.86Z"/>
      <path class="cls-1" d="M54.17,.55h8.42c4.88,0,8.86,3.73,8.86,8.31s-3.98,8.14-8.86,8.14h-4.47v8.73h-3.95V.55Zm13.33,8.28c0-2.41-2.2-4.36-4.91-4.36h-4.47V13.08l4.47,.02c2.7,.02,4.91-1.91,4.91-4.27Z"/>
      <path class="cls-1" d="M74.59,.55h8.42c4.88,0,8.86,3.73,8.86,8.31s-3.98,8.14-8.86,8.14h-4.47v8.73h-3.95V.55Zm13.33,8.28c0-2.41-2.2-4.36-4.91-4.36h-4.47V13.08l4.47,.02c2.7,.02,4.91-1.91,4.91-4.27Z"/>
      <path class="cls-1" d="M95.02,.55h3.95V25.73h-3.95V.55Z"/>
      <path class="cls-1" d="M124.06,.48V26.17h-.19l-16.11-16.83V25.77h-3.95V.11h.2l16.08,16.8V.48h3.97Z"/>
      <path class="cls-1" d="M152.83,13.95c0,7.48-5.44,12.2-11.98,12.2-7.33,0-13.14-5.84-13.14-12.98S133.55,.12,140.7,.12c3.17,.02,6.8,1.55,9.17,3.86l-2.2,3.28c-1.97-1.94-4.62-3.16-7.02-3.16-4.59,0-8.94,3.84-8.94,9.06,0,4.94,3.92,9,9.3,9,4.33,0,7.58-2.64,7.58-6.48v-.08h-7.8v-3.62h11.92c.06,.58,.11,1.27,.11,1.97Z"/>
    </g>
  </g>
</svg>